<?xml version="1.0" encoding="UTF-8"?>
<svg width="1897px" height="543px" viewBox="0 0 1897 543" version="1.1" xmlns="http://www.w3.org/2000/svg" xmlns:xlink="http://www.w3.org/1999/xlink">
    <!-- Generator: Sketch 52.2 (67145) - http://www.bohemiancoding.com/sketch -->
    <title>ATL-white</title>
    <desc>Created with Sketch.</desc>
    <g id="ATL-white" stroke="none" stroke-width="1" fill="none" fill-rule="evenodd">
        <g id="ATL2019_1-1" transform="translate(103.000000, 89.000000)" fill="#000000">
            <path d="M647.92,226.47 L542.2,226.47 L514.93,287.47 L492.43,287.47 L583.53,86.71 L607.72,86.71 L698.82,287.47 L674.64,287.47 L647.92,226.47 Z M595.34,107.53 L550.64,207.35 L639.49,207.35 L595.34,107.53 Z" id="Shape" fill-rule="nonzero"></path>
            <path d="M724.4,141.27 L745.21,141.27 L745.21,174.73 L745.77,174.73 C753.36,157.3 767.14,136.73 801.77,136.73 C805.92088,136.688775 810.065292,137.067368 814.14,137.86 L814.14,159.23 C807.820842,158.118933 801.416078,157.566798 795,157.58 C772.51,157.58 745.24,171.36 745.24,212.97 L745.24,287.48 L724.4,287.48 L724.4,141.27 Z" id="Path"></path>
            <path d="M853.74,95.16 L874.54,95.16 L874.54,141.27 L915.88,141.27 L915.88,157 L874.54,157 L874.54,253.72 C874.54,266.38 878.48,272.28 895.35,272.28 C905.47,272.28 911.94,271.44 915.88,270.59 L915.88,288.03 C908.333524,289.105696 900.722635,289.666991 893.1,289.71 C860.77,289.71 853.74,277.06 853.74,253.44 L853.74,157 L822,157 L822,141.27 L853.78,141.27 L853.74,95.16 Z" id="Path"></path>
            <polygon id="Path" points="949.33 85 970.14 85 970.14 287.48 949.33 287.48"></polygon>
            <path d="M1011.75,186.26 C1014.84,155.61 1031.43,136.77 1081.48,136.77 C1130.41,136.77 1148.4,151.96 1148.4,180.08 L1148.4,256.56 C1148.4,268.65 1151.78,272.86 1159.93,272.86 C1163.59,272.86 1167.24,272.58 1170.93,272.3 L1170.93,286.36 C1166.71,287.2 1160.24,288.61 1153.49,288.61 C1132.41,288.61 1131.28,274.27 1131,262.74 L1130.44,262.74 C1123.97,272.3 1109.91,291.98 1062.11,291.98 C1037.11,291.98 1005.31,280.98 1005.31,248.12 C1005.31,208.47 1046.08,203.97 1078.14,202.29 C1123.69,199.76 1129.31,197.23 1129.31,182.89 C1129.31,161.8 1115.25,154.21 1080.95,154.21 C1048.05,154.21 1032.31,162.92 1030.9,186.21 L1011.75,186.26 Z M1129.28,208.76 C1120,214.66 1105.95,215.76 1064.28,219.76 C1040.1,222.01 1026.04,229.32 1026.04,246.76 C1026.04,269.54 1045.72,276.29 1068.22,276.29 C1096.33,276.29 1129.22,261.1 1129.22,231.02 L1129.28,208.76 Z" id="Shape" fill-rule="nonzero"></path>
            <path d="M1320.2,193.29 C1320.2,164.29 1302.48,154.21 1276.06,154.21 C1235.28,154.21 1216.73,175.01 1216.73,208.21 L1216.73,287.5 L1195.92,287.5 L1195.92,141.27 L1216.73,141.27 L1216.73,170 L1217.29,170 C1223.47,154.54 1245.41,136.82 1277.74,136.82 C1326.39,136.82 1341.01,162.13 1341.01,197 L1341.01,287.53 L1320.2,287.53 L1320.2,193.29 Z" id="Path"></path>
            <path d="M1398.36,95.16 L1419.17,95.16 L1419.17,141.27 L1460.5,141.27 L1460.5,157 L1419.17,157 L1419.17,253.72 C1419.17,266.38 1423.11,272.28 1439.98,272.28 C1450.1,272.28 1456.57,271.44 1460.5,270.59 L1460.5,288.03 C1452.95691,289.106012 1445.34933,289.66731 1437.73,289.71 C1405.39,289.71 1398.36,277.06 1398.36,253.44 L1398.36,157 L1366.59,157 L1366.59,141.27 L1398.36,141.27 L1398.36,95.16 Z" id="Path"></path>
            <path d="M1494,85 L1514.81,85 L1514.81,116 L1494,116 L1494,85 Z M1494,141.23 L1514.81,141.23 L1514.81,287.48 L1494,287.48 L1494,141.23 Z" id="Shape" fill-rule="nonzero"></path>
            <path d="M1666.32,184.57 C1660.97,160.95 1646.32,154.21 1615.99,154.21 C1594.05,154.21 1573.81,158.99 1573.81,179.21 C1573.81,194.39 1583.65,197.49 1628.08,203.39 C1672.78,209.3 1691.34,217.17 1691.34,245.57 C1691.34,274.57 1667.72,291.96 1621.89,291.96 C1575.5,291.96 1547.89,276.78 1547.89,241.63 L1567.01,241.63 C1570.67,266.09 1584.44,274.53 1621.84,274.53 C1650.84,274.53 1670.48,268.63 1670.48,246.69 C1670.48,232.07 1660.08,225.61 1614.48,221.11 C1568.88,216.61 1552.9,205.92 1552.9,180.11 C1552.9,154.8 1573.43,136.8 1615.9,136.8 C1663.41,136.8 1682.82,153.96 1685.35,184.6 L1666.32,184.57 Z" id="Path"></path>
            <path d="M182.85,0.63 C82.4059725,0.63 0.98,82.0559725 0.98,182.5 C0.98,282.944027 82.4059725,364.37 182.85,364.37 C283.294027,364.37 364.72,282.944027 364.72,182.5 C364.714478,82.05826 283.29174,0.635522266 182.85,0.63 Z M220.57,169.84 L145.05,169.84 L182.8,107.67 L220.57,169.84 Z M107.83,101.84 L171.58,101.84 L130.27,169.84 L62.48,169.84 L107.83,101.84 Z M104.55,222.49 L65.55,182.49 L129.42,182.49 L167.04,283.69 L104.55,222.49 Z M182.81,289.83 L142.91,182.49 L222.71,182.49 L182.81,289.83 Z M261.21,222.39 L198.57,283.7 L236.19,182.49 L300.07,182.49 L261.21,222.39 Z M235.35,169.86 L194.03,101.86 L257.78,101.86 L303.22,169.86 L235.35,169.86 Z" id="Shape" fill-rule="nonzero"></path>
        </g>
    </g>
</svg>